<svg id="svg" version="1.1" xmlns="http://www.w3.org/2000/svg" xmlns:xlink="http://www.w3.org/1999/xlink" width="400" height="400" viewBox="0, 0, 400,400"><g id="svgg"><path id="path0" d="M190.223 16.889 C 189.600 17.778,189.091 19.065,189.091 19.749 C 189.091 20.433,188.518 21.171,187.818 21.389 C 162.261 29.335,120.285 39.800,119.094 38.522 C 115.782 34.966,109.408 37.850,109.969 42.651 C 110.247 45.040,109.790 45.618,100.403 54.733 C 94.982 59.998,79.281 75.364,65.514 88.880 C 41.423 112.531,40.378 113.455,37.696 113.455 C 32.589 113.455,30.402 117.773,33.509 121.723 L 35.019 123.641 26.186 164.912 C 21.328 187.610,17.177 206.918,16.962 207.818 C 16.746 208.718,16.023 209.455,15.356 209.455 C 9.336 209.455,9.243 219.650,15.255 220.479 C 18.258 220.893,47.679 305.726,45.704 308.280 C 42.326 312.651,46.096 318.641,51.508 317.500 C 54.162 316.941,126.476 373.680,127.370 377.023 C 128.565 381.491,132.357 383.124,135.853 380.676 C 138.060 379.130,202.929 380.618,205.611 382.277 C 207.502 383.446,209.908 383.577,210.545 382.545 C 211.308 381.311,224.393 381.630,225.455 382.909 C 226.759 384.480,231.679 384.331,232.868 382.684 C 234.184 380.861,306.248 355.640,310.182 355.625 C 314.422 355.609,316.804 353.182,316.043 349.651 C 315.493 347.096,376.139 267.723,379.508 266.589 C 383.841 265.130,384.955 256.727,380.815 256.727 C 380.043 256.727,379.763 246.321,379.337 201.792 L 378.812 146.857 380.461 145.522 C 384.174 142.515,382.097 136.898,376.964 136.064 C 372.419 135.325,307.798 51.897,308.234 47.330 C 308.856 40.799,299.999 38.244,297.597 44.262 C 297.139 45.411,292.450 44.389,248.182 33.498 L 199.273 21.465 199.273 19.573 C 199.273 15.470,192.602 13.492,190.223 16.889 M191.273 24.732 C 191.273 25.135,190.407 28.530,189.349 32.276 L 187.425 39.088 171.846 39.617 C 163.277 39.907,156.133 40.012,155.970 39.849 C 155.691 39.570,189.556 24.185,190.727 24.059 C 191.027 24.026,191.273 24.330,191.273 24.732 M206.364 32.039 C 214.420 38.034,214.115 38.352,199.952 38.700 L 190.085 38.943 191.968 32.448 C 194.146 24.938,195.366 23.894,198.909 26.506 C 200.109 27.391,203.464 29.881,206.364 32.039 M181.758 25.735 C 181.591 25.889,173.874 29.335,164.609 33.392 L 147.763 40.769 137.741 40.566 L 127.719 40.364 154.223 32.954 C 179.712 25.828,182.427 25.116,181.758 25.735 M244.727 35.309 C 263.527 39.896,277.436 43.487,275.636 43.291 C 273.836 43.094,263.089 41.933,251.754 40.711 L 231.144 38.489 219.026 32.343 C 212.362 28.963,207.727 26.371,208.727 26.584 C 209.727 26.797,225.927 30.723,244.727 35.309 M214.436 32.403 C 215.770 33.596,213.332 33.923,211.767 32.761 C 206.402 28.777,206.055 28.223,210.182 30.230 C 212.382 31.300,214.296 32.277,214.436 32.403 M183.949 50.898 C 182.363 56.266,180.806 60.837,180.490 61.056 C 180.174 61.275,177.480 62.957,174.503 64.794 L 169.091 68.133 145.091 66.847 C 131.891 66.139,119.327 65.536,117.171 65.507 L 113.252 65.455 113.694 61.720 C 113.938 59.665,114.229 57.923,114.341 57.847 C 114.453 57.772,122.492 54.193,132.204 49.894 L 149.862 42.078 168.204 41.576 C 178.292 41.300,186.611 41.088,186.690 41.106 C 186.770 41.123,185.536 45.530,183.949 50.898 M211.478 41.128 C 210.490 42.116,185.107 58.076,184.882 57.851 C 184.637 57.607,188.967 42.367,189.592 41.273 C 189.764 40.973,194.848 40.727,200.891 40.727 C 206.934 40.727,211.698 40.908,211.478 41.128 M244.164 47.502 C 257.024 53.972,257.305 54.200,253.273 54.873 C 250.790 55.287,249.370 54.666,237.455 47.961 C 219.653 37.945,224.510 37.612,244.164 47.502 M129.595 48.748 C 121.473 52.336,114.739 55.273,114.630 55.273 C 114.400 55.273,114.837 51.274,115.326 48.909 C 115.512 48.009,116.125 47.273,116.688 47.273 C 117.252 47.273,118.419 46.373,119.281 45.273 C 120.960 43.133,124.151 42.656,138.909 42.340 L 144.364 42.222 129.595 48.748 M234.727 49.820 C 240.427 52.964,245.091 55.747,245.091 56.004 C 245.091 56.527,223.378 60.741,223.009 60.289 C 222.879 60.130,222.070 56.430,221.211 52.067 C 219.475 43.253,219.843 41.223,222.830 43.126 C 223.673 43.663,229.027 46.676,234.727 49.820 M269.683 45.193 C 283.050 46.526,293.321 47.847,292.593 48.140 C 291.867 48.431,286.036 49.685,279.636 50.926 C 273.236 52.166,267.482 53.329,266.849 53.510 C 266.133 53.715,265.386 53.155,264.874 52.031 C 263.861 49.808,261.027 49.003,258.258 50.150 C 256.351 50.940,255.467 50.644,247.544 46.566 C 239.417 42.383,239.102 42.141,242.182 42.449 C 243.982 42.629,256.358 43.863,269.683 45.193 M218.884 52.564 C 219.754 56.931,220.282 60.687,220.058 60.912 C 219.089 61.881,183.596 68.200,182.803 67.546 C 180.055 65.275,183.009 62.448,198.363 52.648 C 217.070 40.710,216.523 40.712,218.884 52.564 M112.349 52.591 L 111.851 56.576 106.811 58.803 C 101.099 61.326,101.103 61.301,107.560 53.666 C 112.988 47.248,113.018 47.242,112.349 52.591 M299.230 51.296 C 300.006 51.883,301.531 52.364,302.618 52.364 C 304.371 52.364,304.757 52.835,306.038 56.545 C 306.833 58.845,309.785 67.334,312.598 75.409 C 318.923 93.560,318.922 93.562,308.343 87.625 C 301.730 83.913,266.136 57.624,265.600 56.055 C 265.480 55.704,267.607 55.039,270.327 54.578 C 273.047 54.117,279.527 52.970,284.727 52.030 C 296.057 49.981,297.402 49.913,299.230 51.296 M257.364 57.364 C 258.114 58.114,259.177 58.887,259.727 59.082 C 260.277 59.277,260.503 59.679,260.230 59.974 C 259.577 60.677,253.763 57.404,254.254 56.610 C 254.853 55.641,255.893 55.893,257.364 57.364 M254.364 60.698 C 260.621 64.116,260.121 60.462,258.493 90.909 C 257.572 108.116,257.130 112.531,256.256 113.210 C 255.375 113.894,252.854 112.667,243.027 106.768 L 230.886 99.481 227.170 81.195 C 225.127 71.138,223.581 62.769,223.736 62.597 C 224.104 62.190,247.415 57.561,248.364 57.706 C 248.764 57.768,251.464 59.114,254.364 60.698 M273.896 65.885 C 285.452 74.696,285.927 75.117,281.455 72.595 C 279.655 71.580,274.500 68.699,270.000 66.193 C 262.291 61.900,260.662 60.308,262.303 58.667 C 263.181 57.789,263.701 58.113,273.896 65.885 M111.273 61.395 C 111.273 64.827,110.830 65.106,105.812 64.847 C 99.961 64.545,99.940 64.144,105.645 61.663 C 111.230 59.235,111.273 59.233,111.273 61.395 M340.933 97.563 C 356.123 117.022,368.803 133.352,369.111 133.851 C 369.907 135.138,341.184 111.582,338.545 108.784 C 337.345 107.511,335.516 106.050,334.479 105.537 C 332.985 104.798,330.519 100.223,322.546 83.394 C 317.019 71.727,312.337 61.855,312.141 61.455 C 311.260 59.647,314.930 64.250,340.933 97.563 M221.321 64.909 C 222.570 70.188,227.707 96.899,227.509 97.093 C 227.038 97.557,184.504 71.617,184.578 70.910 C 184.648 70.256,215.608 63.527,219.376 63.347 C 220.425 63.297,221.060 63.807,221.321 64.909 M284.000 77.075 C 299.539 85.633,314.783 95.707,315.391 97.818 C 315.506 98.218,310.139 101.918,303.465 106.041 L 291.329 113.536 276.993 114.642 L 262.657 115.748 261.045 114.136 L 259.433 112.524 260.271 93.535 C 260.732 83.091,261.303 72.331,261.539 69.623 L 261.968 64.701 264.257 66.081 C 265.516 66.840,274.400 71.787,284.000 77.075 M110.151 67.738 C 110.289 67.882,109.497 75.200,108.390 84.000 C 107.283 92.800,106.182 99.509,105.944 98.909 C 102.576 90.421,98.113 69.644,99.360 68.261 C 100.597 66.889,108.949 66.484,110.151 67.738 M145.455 69.164 C 155.655 69.635,164.234 70.226,164.521 70.477 C 164.936 70.840,118.412 101.207,112.429 104.479 C 108.353 106.708,108.191 105.142,110.559 86.478 C 111.746 77.115,112.720 68.996,112.723 68.436 C 112.726 67.602,114.014 67.498,119.818 67.863 C 123.718 68.108,135.255 68.693,145.455 69.164 M322.148 88.182 C 322.167 88.482,321.554 88.727,320.788 88.727 C 319.556 88.727,315.503 78.842,313.035 69.818 C 312.871 69.218,314.847 72.982,317.426 78.182 C 320.004 83.382,322.129 87.882,322.148 88.182 M100.549 87.135 L 104.573 103.361 102.832 105.102 C 101.874 106.059,101.091 107.450,101.091 108.193 C 101.091 109.426,72.713 113.682,71.641 112.610 C 71.498 112.467,76.838 102.798,83.509 91.123 C 90.179 79.447,95.836 70.123,96.080 70.402 C 96.324 70.681,98.335 78.211,100.549 87.135 M175.239 71.455 C 175.153 73.768,118.673 111.363,116.029 110.866 C 113.746 110.438,111.365 108.742,112.078 108.053 C 120.117 100.285,175.357 68.277,175.239 71.455 M90.279 74.000 C 88.135 78.006,68.159 112.457,67.708 112.925 C 67.069 113.589,42.877 116.574,42.356 116.053 C 41.670 115.367,88.772 72.933,90.389 72.781 C 90.703 72.751,90.654 73.300,90.279 74.000 M227.908 100.382 C 228.699 101.126,233.587 125.152,233.168 126.242 C 233.000 126.680,226.927 129.265,219.672 131.987 L 206.481 136.935 191.786 132.692 L 177.091 128.448 178.207 101.714 C 178.822 87.010,179.476 74.881,179.662 74.762 C 182.706 72.810,182.393 72.667,205.072 86.371 C 217.282 93.749,227.558 100.054,227.908 100.382 M176.385 102.757 C 175.738 116.410,175.141 127.637,175.059 127.707 C 174.976 127.778,162.900 124.372,148.223 120.139 C 122.987 112.861,121.624 112.381,123.130 111.312 C 152.975 90.128,177.111 74.455,177.327 76.119 C 177.456 77.118,177.033 89.105,176.385 102.757 M320.807 101.975 C 321.451 102.976,323.092 110.605,322.739 110.958 C 322.480 111.217,297.325 113.340,296.953 113.134 C 296.877 113.092,301.456 110.204,307.128 106.717 C 317.199 100.525,319.385 99.767,320.807 101.975 M242.887 109.173 C 257.065 117.770,257.078 117.846,245.091 122.369 C 240.291 124.180,236.352 125.615,236.339 125.558 C 235.574 122.399,231.623 102.545,231.759 102.545 C 231.868 102.545,236.876 105.528,242.887 109.173 M329.567 108.868 C 329.255 110.500,329.450 110.336,327.137 110.917 C 325.294 111.379,325.124 111.196,324.048 107.571 C 322.446 102.177,322.509 102.108,326.364 104.981 C 328.678 106.705,329.735 107.988,329.567 108.868 M101.995 112.895 C 102.159 113.387,100.657 116.595,98.656 120.025 L 95.019 126.261 75.044 137.858 C 64.058 144.236,53.415 150.418,51.393 151.596 L 47.717 153.738 49.629 150.317 C 50.681 148.435,55.529 139.914,60.403 131.380 L 69.265 115.864 83.178 114.034 C 99.846 111.842,101.609 111.735,101.995 112.895 M114.909 113.514 C 114.909 114.528,112.194 115.665,110.930 115.180 C 109.853 114.767,109.852 114.623,110.919 113.444 C 112.055 112.189,114.909 112.239,114.909 113.514 M330.948 113.865 C 331.729 114.806,331.644 116.035,330.458 120.956 L 329.023 126.909 327.421 120.572 C 325.503 112.987,325.532 113.636,327.091 113.229 C 329.414 112.622,329.996 112.718,330.948 113.865 M326.107 122.233 L 328.291 130.648 321.950 158.549 C 318.463 173.895,315.534 186.514,315.441 186.590 C 313.009 188.592,311.628 186.925,271.425 133.472 L 269.032 130.290 280.855 122.963 C 287.358 118.933,293.507 115.605,294.521 115.568 C 295.534 115.530,301.273 115.076,307.273 114.558 C 313.273 114.041,319.474 113.663,321.053 113.718 L 323.924 113.818 326.107 122.233 M355.455 126.814 C 371.128 138.553,371.636 139.014,371.636 141.467 C 371.636 143.033,372.193 144.557,373.096 145.460 L 374.556 146.919 369.361 160.551 C 366.503 168.048,363.965 174.408,363.719 174.685 C 363.474 174.961,357.545 161.608,350.545 145.011 C 335.832 110.126,336.909 112.849,338.245 113.893 C 338.810 114.334,346.555 120.149,355.455 126.814 M147.636 122.595 C 162.236 126.837,174.401 130.525,174.669 130.790 C 175.918 132.027,174.376 146.784,172.959 147.154 C 170.991 147.669,112.773 120.708,112.753 119.273 C 112.734 117.891,118.544 114.104,120.000 114.550 C 120.600 114.733,133.036 118.354,147.636 122.595 M105.859 116.525 C 105.237 117.414,104.727 118.691,104.727 119.363 C 104.727 120.034,103.582 121.259,102.182 122.085 C 99.085 123.913,99.081 123.871,101.888 118.898 C 103.419 116.185,104.595 114.909,105.565 114.909 C 106.894 114.909,106.914 115.020,105.859 116.525 M349.062 146.839 L 362.349 178.769 359.614 185.930 C 356.202 194.866,356.638 194.459,351.106 193.866 L 346.465 193.369 338.252 161.862 L 330.038 130.354 331.686 122.632 C 334.227 110.724,333.766 110.082,349.062 146.839 M65.455 116.822 C 65.455 117.455,47.234 149.240,46.234 150.352 C 45.629 151.023,44.553 147.860,41.945 137.745 L 38.464 124.242 40.218 122.616 C 41.183 121.722,42.104 120.596,42.265 120.115 C 42.443 119.580,46.522 118.712,52.733 117.885 C 64.787 116.282,65.455 116.226,65.455 116.822 M285.818 116.647 C 285.818 116.995,269.714 127.079,268.277 127.631 C 267.024 128.112,261.818 121.444,261.818 119.359 C 261.818 118.099,262.549 117.905,268.909 117.481 C 272.809 117.220,276.491 116.900,277.091 116.770 C 278.706 116.418,285.818 116.318,285.818 116.647 M255.965 122.000 C 255.946 122.700,255.196 126.489,254.300 130.421 L 252.670 137.568 248.734 139.996 C 245.190 142.182,244.652 142.321,243.328 141.393 C 242.520 140.827,241.283 140.364,240.579 140.364 C 239.232 140.364,239.108 140.031,237.594 132.364 L 236.660 127.636 245.421 124.236 C 255.359 120.378,256.013 120.239,255.965 122.000 M262.458 124.696 C 264.106 126.879,265.443 128.924,265.429 129.242 C 265.386 130.193,255.272 135.971,255.278 135.041 C 255.285 133.818,258.120 122.142,258.597 121.370 C 259.198 120.399,259.243 120.437,262.458 124.696 M107.406 122.752 C 108.055 123.164,107.297 132.077,104.329 158.922 C 102.164 178.515,100.385 194.769,100.378 195.042 C 100.294 197.992,72.149 178.505,70.664 174.470 C 70.530 174.104,76.391 163.412,83.689 150.710 L 96.959 127.616 101.389 124.973 C 106.447 121.955,106.262 122.024,107.406 122.752 M141.451 135.944 C 157.387 143.513,170.675 150.153,170.981 150.699 C 171.492 151.613,126.393 183.194,125.192 182.764 C 124.786 182.619,110.622 124.807,110.572 123.091 C 110.522 121.372,112.557 122.219,141.451 135.944 M116.324 155.916 C 119.946 171.070,122.909 183.737,122.909 184.064 C 122.909 185.672,104.592 197.268,103.620 196.274 C 102.797 195.433,103.185 189.813,106.037 161.243 C 107.906 142.526,109.503 127.471,109.587 127.788 C 109.670 128.105,112.702 140.762,116.324 155.916 M234.182 129.013 C 234.182 129.170,234.685 131.734,235.301 134.709 L 236.420 140.120 234.458 142.261 L 232.496 144.402 221.091 141.120 L 209.686 137.838 221.388 133.330 C 232.986 128.863,234.182 128.460,234.182 129.013 M37.000 160.314 L 37.091 170.447 28.959 187.758 C 24.486 197.279,20.715 204.958,20.579 204.822 C 20.444 204.686,23.858 187.601,28.166 166.855 L 36.000 129.135 36.454 139.658 C 36.704 145.446,36.949 154.741,37.000 160.314 M80.231 151.798 L 68.025 172.856 58.558 165.255 C 53.351 161.074,49.091 157.133,49.091 156.498 C 49.091 155.507,91.493 130.019,92.218 130.573 C 92.339 130.665,86.944 140.216,80.231 151.798 M201.701 138.393 C 202.037 138.501,196.865 140.653,190.208 143.176 C 177.843 147.862,175.480 148.216,176.271 145.264 C 176.511 144.369,176.712 140.809,176.717 137.353 L 176.727 131.069 188.909 134.634 C 195.609 136.594,201.365 138.286,201.701 138.393 M288.860 159.322 C 300.332 174.295,309.741 186.762,309.769 187.026 C 309.810 187.427,252.135 154.196,251.245 153.306 C 251.083 153.144,251.679 149.955,252.568 146.219 L 254.185 139.427 260.365 135.559 C 263.764 133.432,266.873 131.783,267.273 131.894 C 267.673 132.006,277.387 144.348,288.860 159.322 M41.662 152.454 C 39.720 154.396,39.561 156.140,41.122 158.369 C 42.112 159.782,42.119 160.207,41.184 161.985 L 40.125 164.000 39.745 162.182 C 39.536 161.182,39.213 154.145,39.026 146.545 L 38.687 132.727 41.006 141.759 L 43.324 150.792 41.662 152.454 M337.033 164.364 C 341.158 180.164,344.478 193.162,344.411 193.249 C 343.697 194.179,318.545 191.565,318.545 190.561 C 318.545 189.912,318.178 189.015,317.729 188.566 C 317.126 187.962,318.500 180.720,323.002 160.784 C 326.351 145.953,329.191 134.228,329.313 134.728 C 329.434 135.227,332.909 148.564,337.033 164.364 M218.807 143.357 C 233.540 147.629,232.025 146.958,232.215 149.291 C 232.343 150.865,230.636 152.440,220.043 160.524 L 207.722 169.925 192.925 160.499 C 184.786 155.314,178.237 150.743,178.372 150.340 C 178.613 149.616,203.071 139.847,204.989 139.708 C 205.533 139.669,211.751 141.311,218.807 143.357 M250.613 146.861 C 249.345 152.294,249.292 152.365,247.344 151.148 C 244.617 149.446,245.241 145.172,248.543 142.928 C 251.820 140.701,251.979 141.004,250.613 146.861 M191.851 161.818 C 199.501 166.618,205.685 170.808,205.594 171.130 C 205.503 171.451,199.216 176.435,191.623 182.206 L 177.818 192.697 177.363 185.985 C 175.997 165.826,175.804 152.582,176.879 152.838 C 177.464 152.977,184.201 157.018,191.851 161.818 M238.083 164.250 C 238.346 169.712,238.770 177.536,239.024 181.636 C 239.341 186.740,239.241 189.091,238.708 189.091 C 238.032 189.091,212.249 173.042,210.699 171.656 C 210.383 171.374,215.557 167.015,222.196 161.970 C 237.752 150.149,237.400 150.099,238.083 164.250 M247.102 154.028 L 248.750 155.296 245.102 171.588 C 243.095 180.549,241.337 187.996,241.195 188.139 C 241.053 188.281,240.716 182.580,240.446 175.471 C 240.176 168.362,239.759 160.664,239.520 158.364 C 239.116 154.479,239.192 154.182,240.590 154.182 C 241.418 154.182,242.298 153.855,242.545 153.455 C 243.226 152.354,245.260 152.610,247.102 154.028 M372.877 171.818 C 371.634 182.118,370.414 190.545,370.168 190.545 C 369.921 190.545,368.634 187.915,367.307 184.701 L 364.894 178.856 369.875 165.826 C 372.615 158.660,374.920 152.863,374.998 152.944 C 375.075 153.025,374.121 161.518,372.877 171.818 M174.073 158.000 C 174.307 160.500,174.683 167.782,174.909 174.182 C 175.135 180.582,175.500 187.661,175.721 189.913 L 176.123 194.007 158.840 207.157 L 141.558 220.307 137.152 217.972 L 132.745 215.636 129.235 201.091 C 127.183 192.589,125.970 186.155,126.317 185.606 C 126.897 184.686,172.281 153.603,173.188 153.505 C 173.441 153.477,173.840 155.500,174.073 158.000 M279.995 173.273 L 308.898 190.182 300.449 190.629 C 277.665 191.834,244.766 191.357,243.799 189.808 C 242.902 188.372,243.405 185.720,249.830 158.000 C 250.352 155.749,248.035 154.576,279.995 173.273 M57.792 167.338 L 66.888 174.733 64.535 178.853 C 54.416 196.571,49.787 204.158,49.600 203.330 C 49.092 201.068,46.062 160.310,46.363 159.769 C 46.934 158.739,48.456 159.747,57.792 167.338 M45.636 211.273 C 42.506 216.826,42.317 217.105,41.939 216.721 C 41.746 216.525,41.201 205.954,40.730 193.231 L 39.872 170.098 41.936 165.239 L 44.000 160.379 45.842 184.008 L 47.685 207.636 45.636 211.273 M377.278 219.636 L 377.295 238.182 374.522 219.316 C 371.770 200.594,371.759 200.437,373.147 198.672 C 374.774 196.604,374.916 194.966,373.620 193.195 C 372.863 192.159,373.027 189.138,374.529 176.510 L 376.364 161.091 376.812 181.091 C 377.058 192.091,377.268 209.436,377.278 219.636 M225.682 183.273 C 235.159 189.249,237.793 191.248,237.804 192.468 C 237.818 193.953,182.288 236.364,180.331 236.364 C 179.949 236.364,179.611 234.809,179.580 232.909 C 179.549 231.009,179.140 221.849,178.671 212.553 L 177.818 195.652 193.071 184.063 L 208.323 172.474 210.949 174.055 C 212.393 174.925,219.023 179.073,225.682 183.273 M38.122 196.182 C 38.514 212.870,38.427 217.455,37.721 217.455 C 37.226 217.455,36.145 218.090,35.318 218.867 C 33.827 220.267,33.767 220.262,28.009 218.230 C 21.891 216.070,22.087 216.282,20.880 210.545 C 20.748 209.915,37.266 174.416,37.525 174.775 C 37.578 174.849,37.847 184.482,38.122 196.182 M83.195 188.000 C 90.620 194.000,96.702 199.416,96.711 200.036 C 96.720 200.656,97.036 201.475,97.413 201.855 C 97.845 202.289,94.781 206.572,89.160 213.390 L 80.221 224.235 70.474 224.103 C 65.113 224.031,58.561 223.776,55.913 223.538 L 51.099 223.103 50.640 218.718 C 49.712 209.835,49.561 210.275,59.455 192.970 C 64.555 184.049,68.945 176.827,69.212 176.921 C 69.478 177.014,75.771 182.000,83.195 188.000 M365.934 187.226 C 367.503 191.014,367.674 191.969,366.843 192.288 C 366.279 192.505,365.818 193.183,365.818 193.795 C 365.818 195.033,361.836 195.359,360.106 194.262 C 359.174 193.672,362.525 182.566,363.636 182.559 C 363.836 182.558,364.870 184.658,365.934 187.226 M127.207 201.372 C 128.867 208.327,130.087 214.155,129.918 214.324 C 128.963 215.279,104.645 202.051,104.862 200.695 C 105.155 198.864,123.065 186.733,123.731 187.915 C 123.983 188.362,125.547 194.417,127.207 201.372 M311.117 194.202 C 311.953 195.541,309.862 198.788,288.564 229.240 C 275.654 247.700,264.863 263.145,264.585 263.562 C 264.307 263.980,263.856 264.098,263.582 263.825 C 262.317 262.559,243.151 195.221,243.816 194.376 C 244.332 193.719,249.316 193.424,262.442 193.272 C 314.958 192.663,310.098 192.571,311.117 194.202 M340.430 195.392 L 345.223 195.824 346.533 200.874 C 348.752 209.430,347.846 209.534,335.143 202.177 C 320.147 193.494,320.521 193.942,328.727 194.495 C 332.527 194.751,337.793 195.155,340.430 195.392 M331.091 202.875 C 344.441 210.569,344.029 210.196,344.303 214.845 C 344.355 215.728,326.614 230.129,326.104 229.619 C 325.097 228.612,316.756 194.635,317.636 195.129 C 317.936 195.297,323.991 198.783,331.091 202.875 M240.626 223.455 C 241.104 238.755,241.681 253.153,241.909 255.451 L 242.324 259.629 212.293 249.431 C 195.777 243.822,182.155 239.125,182.023 238.993 C 181.766 238.736,238.621 195.775,239.333 195.688 C 239.566 195.660,240.148 208.155,240.626 223.455 M319.911 214.174 C 324.101 229.991,324.271 230.958,323.079 232.096 C 322.385 232.758,311.719 241.058,299.376 250.542 L 276.933 267.784 273.086 267.304 C 264.129 266.184,262.269 270.226,289.926 230.704 C 305.119 208.993,314.669 195.968,314.981 196.536 C 315.257 197.041,317.476 204.978,319.911 214.174 M354.070 200.245 C 353.247 202.310,352.403 204.425,352.195 204.945 C 351.280 207.231,349.503 205.280,348.352 200.726 L 347.158 196.000 351.362 196.245 L 355.566 196.489 354.070 200.245 M177.105 221.701 C 177.540 233.625,177.458 236.206,176.634 236.520 C 176.085 236.730,168.477 233.426,159.726 229.178 L 143.815 221.455 159.726 209.385 L 175.636 197.315 176.107 202.288 C 176.366 205.024,176.815 213.760,177.105 221.701 M251.648 230.838 C 262.835 269.157,262.806 266.658,252.017 263.041 C 243.093 260.049,243.960 263.090,242.958 231.273 C 242.511 217.073,241.994 203.491,241.809 201.091 C 241.624 198.691,241.618 197.055,241.794 197.455 C 241.970 197.855,246.405 212.877,251.648 230.838 M366.802 198.755 L 368.738 200.419 364.670 209.846 C 362.432 215.031,360.126 220.407,359.545 221.793 L 358.489 224.313 356.421 220.703 C 354.592 217.509,354.469 216.926,355.358 215.657 C 356.702 213.738,356.629 210.536,355.192 208.342 C 354.111 206.692,354.117 206.316,355.269 203.459 C 355.956 201.757,356.802 199.627,357.150 198.727 C 358.065 196.358,364.032 196.376,366.802 198.755 M373.853 228.845 C 375.788 243.559,377.227 255.743,377.050 255.920 C 376.572 256.398,376.797 256.767,367.828 240.839 L 359.496 226.041 364.657 213.812 C 367.496 207.086,369.934 201.697,370.077 201.837 C 370.219 201.978,371.918 214.131,373.853 228.845 M117.221 210.302 C 132.315 217.665,133.108 218.405,129.510 221.766 C 128.279 222.916,127.273 224.381,127.273 225.022 C 127.273 226.205,108.749 226.012,107.544 224.816 C 107.293 224.567,106.223 220.436,105.167 215.636 C 104.110 210.836,103.050 206.173,102.811 205.273 C 102.196 202.961,102.104 202.928,117.221 210.302 M102.912 215.880 C 104.003 220.786,104.776 224.913,104.630 225.051 C 104.483 225.188,99.546 225.090,93.657 224.832 L 82.951 224.364 91.415 214.243 C 98.507 205.761,99.963 204.352,100.403 205.540 C 100.692 206.321,101.821 210.973,102.912 215.880 M48.655 220.182 C 48.715 222.742,48.494 223.273,47.368 223.273 C 45.392 223.273,44.774 218.710,46.345 215.723 L 47.538 213.455 48.060 215.273 C 48.347 216.273,48.615 218.482,48.655 220.182 M347.898 219.174 C 347.671 221.853,337.133 269.091,336.763 269.090 C 336.409 269.090,327.196 234.895,327.068 233.107 C 326.997 232.115,346.306 217.371,347.240 217.704 C 347.658 217.853,347.954 218.515,347.898 219.174 M354.802 222.328 C 356.112 224.609,357.042 227.016,356.870 227.677 C 356.190 230.277,340.007 267.656,339.813 267.074 C 339.699 266.733,342.067 255.714,345.076 242.588 C 348.084 229.461,350.545 218.600,350.545 218.451 C 350.545 216.879,352.908 219.031,354.802 222.328 M27.551 221.335 C 31.706 223.011,33.832 224.297,34.429 225.495 C 34.905 226.449,36.271 227.730,37.465 228.342 C 38.659 228.954,39.757 229.521,39.905 229.602 C 40.200 229.764,42.074 245.340,41.835 245.642 C 41.676 245.842,21.846 221.454,20.873 219.861 C 20.016 218.459,20.911 218.656,27.551 221.335 M137.455 220.439 C 138.855 221.247,139.345 221.682,138.545 221.406 C 137.745 221.130,136.355 220.744,135.455 220.549 C 134.555 220.354,133.818 219.905,133.818 219.552 C 133.818 218.606,134.615 218.800,137.455 220.439 M29.952 234.926 C 35.320 241.535,40.394 247.917,41.227 249.107 C 42.599 251.069,48.872 301.189,47.870 302.190 C 47.734 302.327,42.749 288.471,36.792 271.401 C 30.835 254.330,24.520 236.282,22.758 231.293 C 20.997 226.304,19.699 222.377,19.874 222.566 C 20.049 222.754,24.585 228.317,29.952 234.926 M159.091 230.917 C 167.991 235.257,175.273 239.185,175.273 239.645 C 175.273 240.342,171.260 243.598,168.303 245.301 C 166.437 246.375,140.743 229.410,140.496 226.940 C 140.277 224.758,141.439 222.288,142.446 222.794 C 142.701 222.922,150.191 226.577,159.091 230.917 M49.155 226.450 C 49.365 226.998,49.437 229.127,49.314 231.182 L 49.091 234.918 46.625 231.293 C 44.575 228.281,44.314 227.482,45.077 226.562 C 46.221 225.184,48.644 225.118,49.155 226.450 M76.450 226.388 C 78.295 226.541,61.621 248.364,59.659 248.364 C 57.569 248.364,52.323 239.060,51.958 234.707 C 51.749 232.218,51.461 229.200,51.319 228.000 L 51.059 225.818 62.802 226.024 C 69.261 226.137,75.402 226.301,76.450 226.388 M105.455 227.673 C 105.655 227.997,108.251 238.911,111.224 251.927 C 118.274 282.787,120.529 280.535,92.066 271.058 L 70.038 263.724 67.428 260.044 C 65.992 258.020,63.944 255.160,62.876 253.689 C 60.554 250.492,59.699 252.011,72.073 237.346 L 81.237 226.485 93.164 226.784 C 99.724 226.948,105.255 227.348,105.455 227.673 M123.277 227.632 C 126.577 227.636,127.003 227.830,127.834 229.707 C 128.338 230.845,129.507 232.122,130.432 232.543 L 132.113 233.309 130.083 248.109 C 128.967 256.249,127.692 265.531,127.249 268.735 C 126.505 274.124,126.268 274.676,124.081 276.110 C 119.592 279.053,119.247 278.283,113.449 252.364 C 110.631 239.764,108.132 228.830,107.895 228.067 C 107.489 226.754,107.790 226.706,113.551 227.154 C 116.898 227.415,121.275 227.630,123.277 227.632 M366.823 243.681 L 374.468 257.180 373.496 260.007 L 372.525 262.834 357.377 268.531 C 342.853 273.993,340.000 274.731,340.000 273.023 C 340.000 271.430,358.202 229.191,358.680 229.676 C 358.953 229.954,362.618 236.257,366.823 243.681 M46.850 235.955 C 52.496 243.867,52.761 259.633,47.129 252.546 C 44.769 249.577,44.680 249.262,43.662 240.364 C 42.417 229.478,42.322 229.610,46.850 235.955 M152.166 239.612 C 164.912 247.363,165.040 247.466,163.439 248.687 C 162.547 249.366,155.273 254.452,147.273 259.989 C 139.273 265.526,131.780 270.713,130.623 271.516 L 128.519 272.975 128.945 270.487 C 129.180 269.119,130.414 260.309,131.689 250.909 L 134.007 233.818 136.276 232.694 C 139.078 231.306,137.071 230.432,152.166 239.612 M330.436 253.529 C 335.924 274.243,335.654 272.576,333.868 274.716 L 332.513 276.341 307.893 272.669 C 294.352 270.650,282.674 268.765,281.943 268.481 C 280.896 268.074,285.295 264.375,302.639 251.078 C 314.753 241.790,324.875 234.435,325.131 234.732 C 325.388 235.029,327.775 243.488,330.436 253.529 M179.234 245.685 C 179.496 247.558,179.894 250.158,180.119 251.463 L 180.529 253.835 175.502 250.736 C 169.293 246.908,169.296 246.917,173.584 244.017 C 177.875 241.115,178.627 241.337,179.234 245.685 M211.818 251.725 L 242.182 262.013 242.182 267.263 C 242.182 270.151,242.372 274.444,242.604 276.802 L 243.026 281.091 238.905 284.226 L 234.784 287.362 219.756 278.074 C 211.490 272.966,199.655 265.652,193.455 261.822 L 182.182 254.858 181.318 249.429 C 180.271 242.844,180.200 241.457,180.909 241.446 C 181.209 241.441,195.118 246.067,211.818 251.725 M55.510 247.920 L 58.065 251.477 55.963 253.490 C 53.503 255.847,53.320 255.574,52.913 248.909 C 52.580 243.469,52.370 243.550,55.510 247.920 M173.810 252.839 C 177.487 255.101,180.621 257.310,180.775 257.749 C 180.993 258.371,187.116 302.512,187.837 308.660 C 187.968 309.776,186.988 310.385,182.806 311.785 L 177.613 313.523 152.988 299.626 C 124.140 283.346,126.991 285.524,127.626 280.248 L 128.137 276.000 147.523 262.366 C 158.185 254.867,166.957 248.731,167.016 248.729 C 167.075 248.728,170.132 250.578,173.810 252.839 M62.792 257.936 L 66.084 262.417 61.224 260.778 C 55.757 258.935,54.924 257.603,57.513 254.847 C 58.417 253.884,59.234 253.177,59.328 253.276 C 59.422 253.374,60.981 255.471,62.792 257.936 M47.442 258.591 C 47.218 259.763,47.704 260.833,49.013 262.046 C 50.900 263.795,50.909 263.856,50.837 274.629 C 50.698 295.517,50.054 295.576,47.758 274.909 C 46.625 264.709,45.541 255.709,45.349 254.909 C 45.039 253.618,45.155 253.648,46.383 255.173 C 47.196 256.182,47.633 257.593,47.442 258.591 M215.041 278.148 L 232.627 288.916 224.765 294.944 L 216.903 300.973 203.732 305.160 C 196.487 307.464,190.420 309.208,190.248 309.035 C 190.075 308.863,188.415 298.087,186.558 285.089 C 184.701 272.090,182.996 260.690,182.769 259.755 C 182.404 258.252,183.229 258.594,189.905 262.718 C 194.057 265.283,205.368 272.226,215.041 278.148 M69.128 266.727 C 69.389 267.027,78.217 279.218,88.746 293.818 C 99.275 308.418,109.113 322.028,110.607 324.063 C 114.397 329.221,113.648 330.097,107.137 328.119 L 102.114 326.593 79.239 295.179 C 66.657 277.901,56.124 263.366,55.831 262.879 C 55.281 261.965,68.251 265.718,69.128 266.727 M258.874 267.769 C 259.535 267.975,257.219 270.190,252.693 273.683 C 244.259 280.190,244.556 280.347,244.436 269.338 L 244.364 262.676 251.091 265.058 C 254.791 266.368,258.294 267.587,258.874 267.769 M75.735 294.015 C 87.990 310.907,97.926 324.827,97.816 324.949 C 97.014 325.841,56.021 312.220,56.011 311.058 C 56.005 310.340,55.182 308.934,54.182 307.934 L 52.364 306.116 52.364 284.694 C 52.364 272.912,52.609 263.279,52.909 263.288 C 53.209 263.296,63.481 277.123,75.735 294.015 M372.950 265.326 C 370.708 268.454,329.937 315.634,329.690 315.387 C 329.480 315.177,333.955 293.545,336.355 283.171 C 336.558 282.293,337.492 281.420,338.502 281.167 C 339.484 280.920,340.715 279.837,341.235 278.760 C 342.006 277.166,365.910 266.339,373.678 264.065 C 373.800 264.029,373.473 264.597,372.950 265.326 M114.182 282.016 C 114.182 282.524,115.045 283.334,116.101 283.815 L 118.019 284.689 117.555 292.276 C 117.300 296.449,117.091 305.703,117.091 312.840 C 117.091 323.557,116.911 325.818,116.060 325.818 C 115.263 325.818,73.455 269.168,73.455 268.089 C 73.455 267.951,82.618 270.820,93.818 274.464 C 106.333 278.537,114.182 281.447,114.182 282.016 M272.182 269.083 C 274.396 269.097,273.582 270.362,269.181 273.749 L 264.907 277.037 264.539 273.246 C 264.111 268.851,264.705 268.144,268.364 268.693 C 269.764 268.903,271.482 269.079,272.182 269.083 M262.814 271.455 C 264.282 276.931,263.727 277.958,256.182 283.739 C 249.153 289.124,249.073 289.161,247.066 288.040 C 242.827 285.674,244.321 282.777,253.345 275.863 C 262.067 269.182,262.190 269.124,262.814 271.455 M304.727 274.180 C 333.039 278.425,333.240 278.462,332.939 279.366 C 332.813 279.744,324.567 286.876,314.614 295.215 L 296.519 310.376 285.169 306.450 C 267.559 300.360,267.667 300.407,267.310 298.667 C 266.745 295.919,265.262 279.950,265.546 279.668 C 268.174 277.060,278.309 270.070,279.182 270.264 C 279.832 270.409,291.327 272.171,304.727 274.180 M364.554 280.182 C 362.589 282.682,351.388 297.491,339.662 313.091 C 314.560 346.486,315.010 345.965,320.464 335.294 C 324.298 327.792,324.968 326.892,327.120 326.357 C 329.698 325.716,330.939 323.650,330.689 320.417 C 330.575 318.927,334.303 314.196,349.071 297.092 C 367.553 275.686,371.310 271.583,364.554 280.182 M125.509 281.057 C 125.000 283.769,124.458 284.167,123.111 282.820 C 122.153 281.862,122.713 279.988,124.317 278.787 C 125.861 277.631,126.075 278.038,125.509 281.057 M265.392 296.856 L 265.455 299.531 257.777 296.960 C 247.956 293.671,247.920 293.094,257.091 286.002 L 263.636 280.939 264.483 287.561 C 264.949 291.202,265.358 295.385,265.392 296.856 M328.263 298.000 C 325.232 306.700,322.405 314.882,321.981 316.182 C 321.557 317.482,320.970 318.545,320.676 318.545 C 318.998 318.545,300.305 311.432,300.491 310.864 C 300.666 310.332,332.956 282.415,333.614 282.227 C 333.702 282.202,331.294 289.300,328.263 298.000 M122.812 285.405 L 124.825 286.445 122.472 303.405 C 121.177 312.732,119.977 321.345,119.804 322.545 C 119.632 323.745,119.442 315.645,119.382 304.545 C 119.308 290.870,119.519 284.364,120.036 284.364 C 120.456 284.364,121.705 284.832,122.812 285.405 M242.885 285.636 C 242.861 286.924,238.235 289.628,237.430 288.824 C 236.989 288.383,241.394 284.418,242.364 284.383 C 242.664 284.372,242.898 284.936,242.885 285.636 M151.201 301.091 C 163.976 308.091,174.210 314.030,173.942 314.290 C 173.674 314.549,162.953 318.057,150.119 322.085 C 137.284 326.113,126.306 329.592,125.724 329.815 C 125.080 330.063,124.016 329.342,123.003 327.972 L 121.340 325.723 123.609 309.225 C 126.428 288.723,126.576 287.888,127.347 288.150 C 127.692 288.268,138.426 294.091,151.201 301.091 M236.953 293.286 C 236.766 294.570,226.597 298.768,223.358 298.898 C 223.206 298.904,225.613 296.952,228.708 294.561 C 234.655 289.965,237.501 289.524,236.953 293.286 M239.687 313.650 C 238.614 320.543,237.509 326.695,237.231 327.323 C 236.786 328.331,234.236 328.039,215.490 324.833 C 203.810 322.835,194.381 320.994,194.537 320.741 C 194.693 320.489,199.839 316.468,205.973 311.807 L 217.125 303.332 227.223 300.208 L 237.320 297.085 239.479 299.102 L 241.639 301.119 239.687 313.650 M258.356 299.587 C 266.875 302.409,265.787 300.568,267.205 314.545 C 267.854 320.945,268.536 327.082,268.720 328.182 C 268.954 329.581,268.745 330.182,268.023 330.182 C 267.456 330.182,266.525 330.848,265.955 331.662 L 264.917 333.143 252.450 331.048 C 245.593 329.896,239.845 328.815,239.677 328.646 C 239.508 328.478,240.375 322.077,241.603 314.423 L 243.837 300.505 245.898 300.093 C 247.032 299.866,248.377 299.012,248.888 298.195 C 249.398 297.378,250.143 296.829,250.544 296.975 C 250.945 297.122,254.460 298.297,258.356 299.587 M328.639 307.199 C 326.733 315.168,326.029 317.091,325.018 317.091 C 323.931 317.091,324.212 315.738,327.127 306.943 C 331.295 294.369,331.691 294.436,328.639 307.199 M281.251 307.439 C 288.163 309.730,293.818 311.844,293.818 312.136 C 293.818 313.256,271.851 331.051,271.232 330.432 C 270.879 330.079,270.092 325.050,269.484 319.258 C 268.876 313.466,268.207 307.500,267.999 306.000 C 267.529 302.626,266.346 302.498,281.251 307.439 M210.182 305.729 C 210.182 305.879,206.468 308.834,201.930 312.294 C 192.373 319.580,190.600 319.699,190.555 313.058 C 190.547 311.778,200.867 307.767,210.000 305.500 C 210.100 305.475,210.182 305.578,210.182 305.729 M188.633 314.364 C 189.694 318.325,188.160 319.213,183.958 317.069 C 180.474 315.292,180.376 314.622,183.455 313.634 C 187.135 312.453,188.159 312.597,188.633 314.364 M319.487 322.565 C 319.305 324.983,321.335 323.468,304.901 333.453 L 290.893 341.964 282.402 338.395 C 277.732 336.432,273.795 334.477,273.654 334.052 C 273.512 333.626,278.809 328.700,285.427 323.106 L 297.458 312.934 308.547 316.762 C 319.328 320.483,319.632 320.645,319.487 322.565 M181.908 317.986 C 185.452 319.934,187.812 322.909,185.814 322.909 C 185.612 322.909,173.617 326.018,159.159 329.818 C 144.701 333.618,132.348 336.720,131.708 336.711 C 129.615 336.683,124.230 333.856,124.533 332.946 C 124.741 332.322,174.331 316.110,177.362 315.675 C 177.512 315.654,179.557 316.694,181.908 317.986 M107.732 343.147 C 108.375 344.885,109.852 345.995,111.922 346.294 C 113.496 346.522,129.928 372.085,129.073 372.977 C 128.851 373.209,60.602 320.299,58.182 318.018 C 57.582 317.453,68.380 322.591,82.177 329.436 C 97.220 336.898,107.451 342.388,107.732 343.147 M80.000 322.188 C 87.800 324.626,95.709 327.112,97.575 327.712 C 100.550 328.669,109.432 338.284,108.226 339.242 C 108.102 339.341,97.855 334.400,85.455 328.261 C 73.055 322.123,63.564 317.248,64.364 317.428 C 65.164 317.608,72.200 319.750,80.000 322.188 M231.686 330.128 L 236.826 330.996 234.573 344.952 C 231.891 361.567,233.145 359.250,222.939 366.463 C 213.811 372.913,213.553 373.000,209.579 370.972 L 206.852 369.581 199.721 347.675 C 195.799 335.626,192.754 325.342,192.954 324.821 C 193.301 323.918,201.742 325.075,231.686 330.128 M189.878 325.091 C 190.820 325.091,191.273 325.598,191.273 326.652 C 191.273 327.821,198.808 352.156,204.032 367.856 C 204.205 368.377,204.105 368.666,203.810 368.498 C 203.514 368.331,187.967 361.556,169.260 353.442 C 150.554 345.329,135.405 338.534,135.598 338.342 C 136.330 337.609,186.593 324.475,187.514 324.775 C 188.047 324.949,189.110 325.091,189.878 325.091 M322.887 326.364 C 322.860 327.024,317.840 335.812,317.827 335.220 C 317.807 334.297,320.254 327.575,320.919 326.727 C 321.704 325.728,322.922 325.503,322.887 326.364 M314.717 337.028 C 312.341 343.960,311.591 345.400,310.168 345.757 C 309.232 345.992,307.978 346.672,307.382 347.268 C 306.422 348.228,305.584 348.052,300.037 345.730 L 293.776 343.110 305.615 335.921 C 312.127 331.967,317.479 328.731,317.509 328.730 C 317.538 328.728,316.282 332.463,314.717 337.028 M110.150 331.624 C 111.167 332.011,112.000 332.842,112.000 333.470 C 112.000 335.222,115.357 338.182,117.344 338.182 C 119.621 338.182,120.434 340.080,118.387 340.616 C 117.341 340.889,116.442 340.463,115.475 339.233 C 114.579 338.094,113.335 337.455,112.015 337.455 C 110.369 337.455,109.416 336.705,107.273 333.722 C 104.354 329.659,104.568 329.502,110.150 331.624 M252.552 333.590 C 259.656 334.693,265.383 335.849,265.280 336.159 C 265.033 336.896,235.403 357.828,235.073 357.498 C 234.685 357.109,238.780 331.640,239.236 331.611 C 239.456 331.597,245.449 332.488,252.552 333.590 M125.714 337.375 C 126.836 338.086,126.317 338.502,123.455 339.186 C 122.023 339.528,121.455 339.385,121.455 338.681 C 121.455 336.752,123.662 336.075,125.714 337.375 M281.273 340.066 C 284.973 341.586,287.998 343.011,287.995 343.233 C 287.992 343.455,279.537 348.753,269.205 355.006 C 251.015 366.015,235.186 372.882,233.011 370.708 C 232.375 370.072,234.124 361.924,235.096 360.998 C 239.886 356.433,267.406 338.182,269.500 338.182 C 270.828 338.182,272.130 337.832,272.394 337.405 C 272.658 336.978,273.250 336.780,273.710 336.965 C 274.169 337.151,277.573 338.546,281.273 340.066 M164.505 353.877 C 183.027 361.710,199.715 368.777,201.589 369.583 C 206.173 371.553,207.947 376.732,204.036 376.726 C 203.269 376.725,124.383 346.444,123.906 345.967 C 121.119 343.179,123.877 340.335,129.960 339.724 C 130.438 339.676,145.983 346.045,164.505 353.877 M120.749 344.566 C 120.469 344.678,119.449 344.464,118.483 344.092 L 116.727 343.415 118.545 342.707 C 119.990 342.145,120.456 342.242,120.812 343.182 C 121.058 343.832,121.030 344.455,120.749 344.566 M298.783 347.390 C 302.252 348.854,305.323 350.247,305.606 350.487 C 305.890 350.726,296.235 353.663,284.152 357.013 C 272.068 360.363,261.691 363.256,261.091 363.442 C 260.491 363.628,267.028 359.494,275.617 354.254 C 284.206 349.014,291.513 344.727,291.854 344.727 C 292.196 344.727,295.314 345.925,298.783 347.390 M126.290 358.977 C 128.382 364.922,130.028 369.851,129.948 369.930 C 129.823 370.056,127.652 366.363,117.626 348.960 L 115.616 345.471 119.051 346.820 L 122.486 348.169 126.290 358.977 M168.000 365.635 L 202.545 378.954 192.727 378.574 C 187.327 378.366,175.382 378.021,166.182 377.809 C 140.046 377.206,137.672 376.965,137.144 374.862 C 136.903 373.903,135.811 372.653,134.717 372.085 C 133.022 371.206,132.167 369.431,128.948 360.111 L 125.168 349.170 129.311 350.743 C 131.590 351.609,149.000 358.310,168.000 365.635 M302.182 354.611 C 299.389 355.819,239.617 376.587,239.441 376.411 C 239.319 376.288,242.667 374.147,246.882 371.653 C 254.323 367.248,255.215 366.932,277.636 360.728 C 297.475 355.240,305.154 353.326,302.182 354.611 M230.908 368.005 C 230.626 370.059,230.020 371.882,229.561 372.055 C 217.273 376.705,214.713 375.334,223.687 368.911 C 231.918 363.020,231.588 363.062,230.908 368.005 M238.882 373.338 C 235.359 375.533,233.542 376.280,232.909 375.794 C 230.966 374.299,232.155 373.202,237.273 371.770 C 244.553 369.732,244.597 369.776,238.882 373.338 M210.963 374.036 C 210.933 374.316,210.745 374.545,210.545 374.545 C 210.345 374.545,209.691 374.545,209.091 374.545 C 208.491 374.545,208.000 374.065,208.000 373.478 C 208.000 372.703,208.414 372.564,209.508 372.969 C 210.338 373.275,210.993 373.756,210.963 374.036 M225.091 376.000 C 224.844 376.400,223.924 376.722,223.048 376.716 C 221.753 376.707,221.659 376.573,222.545 376.000 C 223.978 375.074,225.663 375.074,225.091 376.000 M221.091 377.818 L 222.909 378.858 220.364 378.891 C 218.964 378.910,216.509 379.128,214.909 379.375 C 211.376 379.922,212.137 378.668,216.000 377.577 C 219.319 376.640,219.004 376.625,221.091 377.818 " stroke="none" fill="#000000" fill-rule="evenodd"></path></g></svg>